<mxfile host="app.diagrams.net" modified="2022-09-01T05:45:23.769Z" agent="5.0 (Macintosh; Intel Mac OS X 10_15_7) AppleWebKit/537.36 (KHTML, like Gecko) Chrome/104.0.0.0 Safari/537.36" etag="O1Ofi2qDjLd0_s6ACsyj" version="20.2.3" type="github">
  <diagram id="HD0C1crZ28EusQ-btgLW" name="Page-1">
    <mxGraphModel dx="946" dy="527" grid="1" gridSize="10" guides="1" tooltips="1" connect="1" arrows="1" fold="1" page="1" pageScale="1" pageWidth="850" pageHeight="1100" math="0" shadow="0">
      <root>
        <mxCell id="0" />
        <mxCell id="1" parent="0" />
        <mxCell id="1rDeg6ygBk9auXVa0yIM-1" value="Order To Cash" style="shape=table;childLayout=tableLayout;rowLines=0;columnLines=0;startSize=40;html=1;whiteSpace=wrap;collapsible=0;recursiveResize=0;expand=0;pointerEvents=0;fontStyle=1;align=center;" vertex="1" parent="1">
          <mxGeometry x="220" y="90" width="820" height="390" as="geometry" />
        </mxCell>
        <mxCell id="1rDeg6ygBk9auXVa0yIM-2" value="Distributor" style="swimlane;horizontal=0;points=[[0,0.5],[1,0.5]];portConstraint=eastwest;startSize=40;html=1;whiteSpace=wrap;collapsible=0;recursiveResize=0;expand=0;pointerEvents=0;fontStyle=1" vertex="1" parent="1rDeg6ygBk9auXVa0yIM-1">
          <mxGeometry y="40" width="820" height="117" as="geometry" />
        </mxCell>
        <mxCell id="1rDeg6ygBk9auXVa0yIM-3" value="Order" style="swimlane;connectable=0;startSize=40;html=1;whiteSpace=wrap;collapsible=0;recursiveResize=0;expand=0;pointerEvents=0;" vertex="1" parent="1rDeg6ygBk9auXVa0yIM-2">
          <mxGeometry x="40" width="260" height="117" as="geometry">
            <mxRectangle width="260" height="117" as="alternateBounds" />
          </mxGeometry>
        </mxCell>
        <mxCell id="1rDeg6ygBk9auXVa0yIM-18" style="edgeStyle=orthogonalEdgeStyle;rounded=0;orthogonalLoop=1;jettySize=auto;html=1;exitX=1;exitY=0.5;exitDx=0;exitDy=0;exitPerimeter=0;entryX=0;entryY=0.5;entryDx=0;entryDy=0;entryPerimeter=0;" edge="1" parent="1rDeg6ygBk9auXVa0yIM-3" source="1rDeg6ygBk9auXVa0yIM-14" target="1rDeg6ygBk9auXVa0yIM-17">
          <mxGeometry relative="1" as="geometry" />
        </mxCell>
        <mxCell id="1rDeg6ygBk9auXVa0yIM-14" value="" style="points=[[0.145,0.145,0],[0.5,0,0],[0.855,0.145,0],[1,0.5,0],[0.855,0.855,0],[0.5,1,0],[0.145,0.855,0],[0,0.5,0]];shape=mxgraph.bpmn.event;html=1;verticalLabelPosition=bottom;labelBackgroundColor=#ffffff;verticalAlign=top;align=center;perimeter=ellipsePerimeter;outlineConnect=0;aspect=fixed;outline=standard;symbol=general;" vertex="1" parent="1rDeg6ygBk9auXVa0yIM-3">
          <mxGeometry x="10" y="53" width="50" height="50" as="geometry" />
        </mxCell>
        <mxCell id="1rDeg6ygBk9auXVa0yIM-17" value="Place Order" style="points=[[0.25,0,0],[0.5,0,0],[0.75,0,0],[1,0.25,0],[1,0.5,0],[1,0.75,0],[0.75,1,0],[0.5,1,0],[0.25,1,0],[0,0.75,0],[0,0.5,0],[0,0.25,0]];shape=mxgraph.bpmn.task;whiteSpace=wrap;rectStyle=rounded;size=10;taskMarker=abstract;" vertex="1" parent="1rDeg6ygBk9auXVa0yIM-3">
          <mxGeometry x="90" y="44.5" width="110" height="67" as="geometry" />
        </mxCell>
        <mxCell id="1rDeg6ygBk9auXVa0yIM-4" value="Plan" style="swimlane;connectable=0;startSize=40;html=1;whiteSpace=wrap;collapsible=0;recursiveResize=0;expand=0;pointerEvents=0;" vertex="1" parent="1rDeg6ygBk9auXVa0yIM-2">
          <mxGeometry x="300" width="260" height="117" as="geometry">
            <mxRectangle width="260" height="117" as="alternateBounds" />
          </mxGeometry>
        </mxCell>
        <mxCell id="1rDeg6ygBk9auXVa0yIM-5" value="Produce" style="swimlane;connectable=0;startSize=40;html=1;whiteSpace=wrap;collapsible=0;recursiveResize=0;expand=0;pointerEvents=0;" vertex="1" parent="1rDeg6ygBk9auXVa0yIM-2">
          <mxGeometry x="560" width="260" height="117" as="geometry">
            <mxRectangle width="260" height="117" as="alternateBounds" />
          </mxGeometry>
        </mxCell>
        <mxCell id="1rDeg6ygBk9auXVa0yIM-6" value="System" style="swimlane;horizontal=0;points=[[0,0.5],[1,0.5]];portConstraint=eastwest;startSize=40;html=1;whiteSpace=wrap;collapsible=0;recursiveResize=0;expand=0;pointerEvents=0;" vertex="1" parent="1rDeg6ygBk9auXVa0yIM-1">
          <mxGeometry y="157" width="820" height="116" as="geometry" />
        </mxCell>
        <mxCell id="1rDeg6ygBk9auXVa0yIM-7" value="" style="swimlane;connectable=0;startSize=0;html=1;whiteSpace=wrap;collapsible=0;recursiveResize=0;expand=0;pointerEvents=0;" vertex="1" parent="1rDeg6ygBk9auXVa0yIM-6">
          <mxGeometry x="40" width="260" height="116" as="geometry">
            <mxRectangle width="260" height="116" as="alternateBounds" />
          </mxGeometry>
        </mxCell>
        <mxCell id="1rDeg6ygBk9auXVa0yIM-8" value="" style="swimlane;connectable=0;startSize=0;html=1;whiteSpace=wrap;collapsible=0;recursiveResize=0;expand=0;pointerEvents=0;" vertex="1" parent="1rDeg6ygBk9auXVa0yIM-6">
          <mxGeometry x="300" width="260" height="116" as="geometry">
            <mxRectangle width="260" height="116" as="alternateBounds" />
          </mxGeometry>
        </mxCell>
        <mxCell id="1rDeg6ygBk9auXVa0yIM-20" value="Auto Request Required Raw Materials" style="points=[[0.25,0,0],[0.5,0,0],[0.75,0,0],[1,0.25,0],[1,0.5,0],[1,0.75,0],[0.75,1,0],[0.5,1,0],[0.25,1,0],[0,0.75,0],[0,0.5,0],[0,0.25,0]];shape=mxgraph.bpmn.task;whiteSpace=wrap;rectStyle=rounded;size=10;taskMarker=abstract;bpmnShapeType=subprocess;isLoopSub=1;outline=eventNonint;symbol=multiple;" vertex="1" parent="1rDeg6ygBk9auXVa0yIM-8">
          <mxGeometry x="64" y="13" width="120" height="80" as="geometry" />
        </mxCell>
        <mxCell id="1rDeg6ygBk9auXVa0yIM-9" value="" style="swimlane;connectable=0;startSize=0;html=1;whiteSpace=wrap;collapsible=0;recursiveResize=0;expand=0;pointerEvents=0;" vertex="1" parent="1rDeg6ygBk9auXVa0yIM-6">
          <mxGeometry x="560" width="260" height="116" as="geometry">
            <mxRectangle width="260" height="116" as="alternateBounds" />
          </mxGeometry>
        </mxCell>
        <mxCell id="1rDeg6ygBk9auXVa0yIM-10" value="Production Manager" style="swimlane;horizontal=0;points=[[0,0.5],[1,0.5]];portConstraint=eastwest;startSize=40;html=1;whiteSpace=wrap;collapsible=0;recursiveResize=0;expand=0;pointerEvents=0;" vertex="1" parent="1rDeg6ygBk9auXVa0yIM-1">
          <mxGeometry y="273" width="820" height="117" as="geometry" />
        </mxCell>
        <mxCell id="1rDeg6ygBk9auXVa0yIM-11" value="" style="swimlane;connectable=0;startSize=0;html=1;whiteSpace=wrap;collapsible=0;recursiveResize=0;expand=0;pointerEvents=0;" vertex="1" parent="1rDeg6ygBk9auXVa0yIM-10">
          <mxGeometry x="40" width="260" height="117" as="geometry">
            <mxRectangle width="260" height="117" as="alternateBounds" />
          </mxGeometry>
        </mxCell>
        <mxCell id="1rDeg6ygBk9auXVa0yIM-12" value="" style="swimlane;connectable=0;startSize=0;html=1;whiteSpace=wrap;collapsible=0;recursiveResize=0;expand=0;pointerEvents=0;" vertex="1" parent="1rDeg6ygBk9auXVa0yIM-10">
          <mxGeometry x="300" width="260" height="117" as="geometry">
            <mxRectangle width="260" height="117" as="alternateBounds" />
          </mxGeometry>
        </mxCell>
        <mxCell id="1rDeg6ygBk9auXVa0yIM-46" style="edgeStyle=orthogonalEdgeStyle;rounded=0;orthogonalLoop=1;jettySize=auto;html=1;exitX=1;exitY=0.5;exitDx=0;exitDy=0;exitPerimeter=0;entryX=0;entryY=0.5;entryDx=0;entryDy=0;entryPerimeter=0;" edge="1" parent="1rDeg6ygBk9auXVa0yIM-12" source="1rDeg6ygBk9auXVa0yIM-44" target="1rDeg6ygBk9auXVa0yIM-22">
          <mxGeometry relative="1" as="geometry" />
        </mxCell>
        <mxCell id="1rDeg6ygBk9auXVa0yIM-44" value="" style="points=[[0.145,0.145,0],[0.5,0,0],[0.855,0.145,0],[1,0.5,0],[0.855,0.855,0],[0.5,1,0],[0.145,0.855,0],[0,0.5,0]];shape=mxgraph.bpmn.event;html=1;verticalLabelPosition=bottom;labelBackgroundColor=#ffffff;verticalAlign=top;align=center;perimeter=ellipsePerimeter;outlineConnect=0;aspect=fixed;outline=boundInt;symbol=parallelMultiple;" vertex="1" parent="1rDeg6ygBk9auXVa0yIM-12">
          <mxGeometry x="20" y="37" width="50" height="50" as="geometry" />
        </mxCell>
        <mxCell id="1rDeg6ygBk9auXVa0yIM-22" value="Create Production Plan" style="points=[[0.25,0,0],[0.5,0,0],[0.75,0,0],[1,0.25,0],[1,0.5,0],[1,0.75,0],[0.75,1,0],[0.5,1,0],[0.25,1,0],[0,0.75,0],[0,0.5,0],[0,0.25,0]];shape=mxgraph.bpmn.task;whiteSpace=wrap;rectStyle=rounded;size=10;taskMarker=abstract;" vertex="1" parent="1rDeg6ygBk9auXVa0yIM-12">
          <mxGeometry x="110" y="21.5" width="120" height="80" as="geometry" />
        </mxCell>
        <mxCell id="1rDeg6ygBk9auXVa0yIM-13" value="" style="swimlane;connectable=0;startSize=0;html=1;whiteSpace=wrap;collapsible=0;recursiveResize=0;expand=0;pointerEvents=0;" vertex="1" parent="1rDeg6ygBk9auXVa0yIM-10">
          <mxGeometry x="560" width="260" height="117" as="geometry">
            <mxRectangle width="260" height="117" as="alternateBounds" />
          </mxGeometry>
        </mxCell>
        <mxCell id="1rDeg6ygBk9auXVa0yIM-21" style="edgeStyle=orthogonalEdgeStyle;rounded=0;orthogonalLoop=1;jettySize=auto;html=1;exitX=0.5;exitY=1;exitDx=0;exitDy=0;exitPerimeter=0;entryX=0;entryY=0.5;entryDx=0;entryDy=0;entryPerimeter=0;" edge="1" parent="1rDeg6ygBk9auXVa0yIM-1" source="1rDeg6ygBk9auXVa0yIM-17" target="1rDeg6ygBk9auXVa0yIM-20">
          <mxGeometry relative="1" as="geometry" />
        </mxCell>
        <mxCell id="1rDeg6ygBk9auXVa0yIM-45" style="edgeStyle=orthogonalEdgeStyle;rounded=0;orthogonalLoop=1;jettySize=auto;html=1;exitX=0.5;exitY=1;exitDx=0;exitDy=0;exitPerimeter=0;entryX=0.5;entryY=0;entryDx=0;entryDy=0;entryPerimeter=0;" edge="1" parent="1rDeg6ygBk9auXVa0yIM-1" source="1rDeg6ygBk9auXVa0yIM-20" target="1rDeg6ygBk9auXVa0yIM-44">
          <mxGeometry relative="1" as="geometry" />
        </mxCell>
        <mxCell id="1rDeg6ygBk9auXVa0yIM-24" value="" style="shape=table;childLayout=tableLayout;rowLines=0;columnLines=0;startSize=40;html=1;whiteSpace=wrap;collapsible=0;recursiveResize=0;expand=0;pointerEvents=0;fontStyle=1;align=center;strokeColor=none;" vertex="1" parent="1">
          <mxGeometry x="220" y="480" width="820" height="390" as="geometry" />
        </mxCell>
        <mxCell id="1rDeg6ygBk9auXVa0yIM-25" value="Purchase Manger" style="swimlane;horizontal=0;points=[[0,0.5],[1,0.5]];portConstraint=eastwest;startSize=40;html=1;whiteSpace=wrap;collapsible=0;recursiveResize=0;expand=0;pointerEvents=0;fontStyle=1" vertex="1" parent="1rDeg6ygBk9auXVa0yIM-24">
          <mxGeometry y="40" width="820" height="117" as="geometry" />
        </mxCell>
        <mxCell id="1rDeg6ygBk9auXVa0yIM-26" value="" style="swimlane;connectable=0;startSize=40;html=1;whiteSpace=wrap;collapsible=0;recursiveResize=0;expand=0;pointerEvents=0;strokeColor=none;" vertex="1" parent="1rDeg6ygBk9auXVa0yIM-25">
          <mxGeometry x="40" width="260" height="117" as="geometry">
            <mxRectangle width="260" height="117" as="alternateBounds" />
          </mxGeometry>
        </mxCell>
        <mxCell id="1rDeg6ygBk9auXVa0yIM-30" value="" style="swimlane;connectable=0;startSize=40;html=1;whiteSpace=wrap;collapsible=0;recursiveResize=0;expand=0;pointerEvents=0;strokeColor=none;" vertex="1" parent="1rDeg6ygBk9auXVa0yIM-25">
          <mxGeometry x="300" width="260" height="117" as="geometry">
            <mxRectangle width="260" height="117" as="alternateBounds" />
          </mxGeometry>
        </mxCell>
        <mxCell id="1rDeg6ygBk9auXVa0yIM-48" value="" style="points=[[0.25,0,0],[0.5,0,0],[0.75,0,0],[1,0.25,0],[1,0.5,0],[1,0.75,0],[0.75,1,0],[0.5,1,0],[0.25,1,0],[0,0.75,0],[0,0.5,0],[0,0.25,0]];shape=mxgraph.bpmn.task;whiteSpace=wrap;rectStyle=rounded;size=10;taskMarker=abstract;" vertex="1" parent="1rDeg6ygBk9auXVa0yIM-30">
          <mxGeometry x="80" y="10" width="120" height="80" as="geometry" />
        </mxCell>
        <mxCell id="1rDeg6ygBk9auXVa0yIM-31" value="" style="swimlane;connectable=0;startSize=40;html=1;whiteSpace=wrap;collapsible=0;recursiveResize=0;expand=0;pointerEvents=0;strokeColor=none;" vertex="1" parent="1rDeg6ygBk9auXVa0yIM-25">
          <mxGeometry x="560" width="260" height="117" as="geometry">
            <mxRectangle width="260" height="117" as="alternateBounds" />
          </mxGeometry>
        </mxCell>
        <mxCell id="1rDeg6ygBk9auXVa0yIM-32" value="Warehouse Manager" style="swimlane;horizontal=0;points=[[0,0.5],[1,0.5]];portConstraint=eastwest;startSize=40;html=1;whiteSpace=wrap;collapsible=0;recursiveResize=0;expand=0;pointerEvents=0;" vertex="1" parent="1rDeg6ygBk9auXVa0yIM-24">
          <mxGeometry y="157" width="820" height="116" as="geometry" />
        </mxCell>
        <mxCell id="1rDeg6ygBk9auXVa0yIM-33" value="" style="swimlane;connectable=0;startSize=0;html=1;whiteSpace=wrap;collapsible=0;recursiveResize=0;expand=0;pointerEvents=0;" vertex="1" parent="1rDeg6ygBk9auXVa0yIM-32">
          <mxGeometry x="40" width="260" height="116" as="geometry">
            <mxRectangle width="260" height="116" as="alternateBounds" />
          </mxGeometry>
        </mxCell>
        <mxCell id="1rDeg6ygBk9auXVa0yIM-34" value="" style="swimlane;connectable=0;startSize=0;html=1;whiteSpace=wrap;collapsible=0;recursiveResize=0;expand=0;pointerEvents=0;" vertex="1" parent="1rDeg6ygBk9auXVa0yIM-32">
          <mxGeometry x="300" width="260" height="116" as="geometry">
            <mxRectangle width="260" height="116" as="alternateBounds" />
          </mxGeometry>
        </mxCell>
        <mxCell id="1rDeg6ygBk9auXVa0yIM-50" value="Receive Material " style="points=[[0.25,0,0],[0.5,0,0],[0.75,0,0],[1,0.25,0],[1,0.5,0],[1,0.75,0],[0.75,1,0],[0.5,1,0],[0.25,1,0],[0,0.75,0],[0,0.5,0],[0,0.25,0]];shape=mxgraph.bpmn.task;whiteSpace=wrap;rectStyle=rounded;size=10;taskMarker=abstract;" vertex="1" parent="1rDeg6ygBk9auXVa0yIM-34">
          <mxGeometry x="80" y="18" width="120" height="80" as="geometry" />
        </mxCell>
        <mxCell id="1rDeg6ygBk9auXVa0yIM-36" value="" style="swimlane;connectable=0;startSize=0;html=1;whiteSpace=wrap;collapsible=0;recursiveResize=0;expand=0;pointerEvents=0;" vertex="1" parent="1rDeg6ygBk9auXVa0yIM-32">
          <mxGeometry x="560" width="260" height="116" as="geometry">
            <mxRectangle width="260" height="116" as="alternateBounds" />
          </mxGeometry>
        </mxCell>
        <mxCell id="1rDeg6ygBk9auXVa0yIM-37" value="Production Manager" style="swimlane;horizontal=0;points=[[0,0.5],[1,0.5]];portConstraint=eastwest;startSize=40;html=1;whiteSpace=wrap;collapsible=0;recursiveResize=0;expand=0;pointerEvents=0;" vertex="1" parent="1rDeg6ygBk9auXVa0yIM-24">
          <mxGeometry y="273" width="820" height="117" as="geometry" />
        </mxCell>
        <mxCell id="1rDeg6ygBk9auXVa0yIM-38" value="" style="swimlane;connectable=0;startSize=0;html=1;whiteSpace=wrap;collapsible=0;recursiveResize=0;expand=0;pointerEvents=0;" vertex="1" parent="1rDeg6ygBk9auXVa0yIM-37">
          <mxGeometry x="40" width="260" height="117" as="geometry">
            <mxRectangle width="260" height="117" as="alternateBounds" />
          </mxGeometry>
        </mxCell>
        <mxCell id="1rDeg6ygBk9auXVa0yIM-39" value="" style="swimlane;connectable=0;startSize=0;html=1;whiteSpace=wrap;collapsible=0;recursiveResize=0;expand=0;pointerEvents=0;" vertex="1" parent="1rDeg6ygBk9auXVa0yIM-37">
          <mxGeometry x="300" width="260" height="117" as="geometry">
            <mxRectangle width="260" height="117" as="alternateBounds" />
          </mxGeometry>
        </mxCell>
        <mxCell id="1rDeg6ygBk9auXVa0yIM-41" value="" style="swimlane;connectable=0;startSize=0;html=1;whiteSpace=wrap;collapsible=0;recursiveResize=0;expand=0;pointerEvents=0;" vertex="1" parent="1rDeg6ygBk9auXVa0yIM-37">
          <mxGeometry x="560" width="260" height="117" as="geometry">
            <mxRectangle width="260" height="117" as="alternateBounds" />
          </mxGeometry>
        </mxCell>
        <mxCell id="1rDeg6ygBk9auXVa0yIM-51" value="" style="edgeStyle=orthogonalEdgeStyle;rounded=0;orthogonalLoop=1;jettySize=auto;html=1;" edge="1" parent="1rDeg6ygBk9auXVa0yIM-24" source="1rDeg6ygBk9auXVa0yIM-48" target="1rDeg6ygBk9auXVa0yIM-50">
          <mxGeometry relative="1" as="geometry" />
        </mxCell>
        <mxCell id="1rDeg6ygBk9auXVa0yIM-49" style="edgeStyle=orthogonalEdgeStyle;rounded=0;orthogonalLoop=1;jettySize=auto;html=1;exitX=0.5;exitY=1;exitDx=0;exitDy=0;exitPerimeter=0;entryX=0;entryY=0.5;entryDx=0;entryDy=0;entryPerimeter=0;" edge="1" parent="1" source="1rDeg6ygBk9auXVa0yIM-44" target="1rDeg6ygBk9auXVa0yIM-48">
          <mxGeometry relative="1" as="geometry" />
        </mxCell>
      </root>
    </mxGraphModel>
  </diagram>
</mxfile>
